<?xml version="1.0" encoding="utf-8"?>
<!-- Generator: Adobe Illustrator 22.0.1, SVG Export Plug-In . SVG Version: 6.00 Build 0)  -->
<svg version="1.1" id="图层_1" xmlns="http://www.w3.org/2000/svg" xmlns:xlink="http://www.w3.org/1999/xlink" x="0px" y="0px"
	 viewBox="0 0 850.4 850.4" style="enable-background:new 0 0 850.4 850.4;" xml:space="preserve">
<style type="text/css">
	.st0{fill:#E7831F;}
	.st1{fill:#F3931F;}
	.st2{fill:#FFFFFF;}
	.st3{fill:#B3B3B3;}
</style>
<g>
	<g>
		<g>
			<g>
				<path class="st0" d="M845.2,61.3v55.2c0,3.6-2.9,6.5-6.5,6.5H184.8c-3.6,0-6.5-2.9-6.5-6.5V61.3c0-3.6,2.9-6.5,6.5-6.5h653.9
					C842.3,54.8,845.2,57.7,845.2,61.3z"/>
			</g>
		</g>
		<g>
			<g>
				<path class="st0" d="M845.2,500.9v55.2c0,3.6-2.9,6.5-6.5,6.5H184.8c-3.6,0-6.5-2.9-6.5-6.5v-55.2c0-3.6,2.9-6.5,6.5-6.5h653.9
					C842.3,494.4,845.2,497.3,845.2,500.9z"/>
			</g>
		</g>
		<g>
			<g>
				<path class="st0" d="M196.2,91.6v446.1h631.2V91.6H196.2z M810,520.3H213.5V108.9H810V520.3z"/>
			</g>
		</g>
		<g>
			<g>
				<path class="st0" d="M328,162h-83.4c-4.8,0-8.7-3.9-8.7-8.7c0-4.8,3.9-8.7,8.7-8.7H328c4.8,0,8.7,3.9,8.7,8.7
					C336.6,158.1,332.8,162,328,162z"/>
			</g>
		</g>
		<g>
			<g>
				<path class="st0" d="M422.7,158.2h-53.1c-4.8,0-8.7-3.9-8.7-8.7c0-4.8,3.9-8.7,8.7-8.7h53.1c4.8,0,8.7,3.9,8.7,8.7
					C431.4,154.3,427.5,158.2,422.7,158.2z"/>
			</g>
		</g>
		<g>
			<g>
				<path class="st0" d="M316.6,218.8h-30.3c-4.8,0-8.7-3.9-8.7-8.7c0-4.8,3.9-8.7,8.7-8.7h30.3c4.8,0,8.7,3.9,8.7,8.7
					C325.3,214.9,321.4,218.8,316.6,218.8z"/>
			</g>
		</g>
		<g>
			<g>
				<path class="st0" d="M422.7,218.8h-68.2c-4.8,0-8.7-3.9-8.7-8.7c0-4.8,3.9-8.7,8.7-8.7h68.2c4.8,0,8.7,3.9,8.7,8.7
					C431.4,214.9,427.5,218.8,422.7,218.8z"/>
			</g>
		</g>
		<g>
			<g>
				<path class="st0" d="M643.6,365h-90.9c-4.8,0-8.7-3.9-8.7-8.7s3.9-8.7,8.7-8.7h90.9c4.8,0,8.7,3.9,8.7,8.7S648.4,365,643.6,365z
					"/>
			</g>
		</g>
		<g>
			<g>
				<path class="st0" d="M742.1,365h-60.6c-4.8,0-8.7-3.9-8.7-8.7s3.9-8.7,8.7-8.7h60.6c4.8,0,8.7,3.9,8.7,8.7S746.9,365,742.1,365z
					"/>
			</g>
		</g>
		<g>
			<g>
				<path class="st0" d="M628.4,395.3h-30.3c-4.8,0-8.7-3.9-8.7-8.7s3.9-8.7,8.7-8.7h30.3c4.8,0,8.7,3.9,8.7,8.7
					S633.2,395.3,628.4,395.3z"/>
			</g>
		</g>
		<g>
			<g>
				<path class="st0" d="M764.8,395.3H658.7c-4.8,0-8.7-3.9-8.7-8.7s3.9-8.7,8.7-8.7h106.1c4.8,0,8.7,3.9,8.7,8.7
					S769.6,395.3,764.8,395.3z"/>
			</g>
		</g>
		<g>
			<g>
				<path class="st0" d="M658.7,440.8h-83.4c-4.8,0-8.7-3.9-8.7-8.7s3.9-8.7,8.7-8.7h83.4c4.8,0,8.7,3.9,8.7,8.7
					S663.5,440.8,658.7,440.8z"/>
			</g>
		</g>
		<g>
			<g>
				<path class="st0" d="M764.8,440.8h-83.4c-4.8,0-8.7-3.9-8.7-8.7s3.9-8.7,8.7-8.7h83.4c4.8,0,8.7,3.9,8.7,8.7
					S769.6,440.8,764.8,440.8z"/>
			</g>
		</g>
		<g>
			<g>
				<path class="st0" d="M643.6,471.1h-45.5c-4.8,0-8.7-3.9-8.7-8.7s3.9-8.7,8.7-8.7h45.5c4.8,0,8.7,3.9,8.7,8.7
					S648.4,471.1,643.6,471.1z"/>
			</g>
		</g>
		<g>
			<g>
				<path class="st0" d="M788.7,462.4c0,4.8-3.9,8.7-8.7,8.7h-98.5c-4.8,0-8.7-3.9-8.7-8.7c0-4.8,3.9-8.7,8.7-8.7H780
					C784.8,453.8,788.7,457.6,788.7,462.4z"/>
			</g>
		</g>
		<g>
			<g>
				<path class="st0" d="M770.1,225.9h-76.2v-76.2C734.1,153.7,766.1,185.7,770.1,225.9z"/>
			</g>
		</g>
		<g>
			<g>
				<path class="st0" d="M763.8,230.7c0,41.8-34,75.8-75.8,75.8s-75.8-34-75.8-75.8c0-41.8,34-75.8,75.8-75.8v75.8H763.8z"/>
			</g>
		</g>
		<g>
			<g>
				<path class="st0" d="M494.7,494.4h-45.5v-80.1c0-1.8,1.4-3.2,3.2-3.2h39c1.8,0,3.2,1.4,3.2,3.2V494.4z"/>
			</g>
		</g>
		<g>
			<g>
				<path class="st0" d="M365.9,494.4h-45.5v-80.1c0-1.8,1.4-3.2,3.2-3.2h39c1.8,0,3.2,1.4,3.2,3.2V494.4z"/>
			</g>
		</g>
		<g>
			<g>
				<path class="st0" d="M426.5,501.9H381V315.7c0-1.8,1.4-3.2,3.2-3.2h39c1.8,0,3.2,1.4,3.2,3.2V501.9z"/>
			</g>
		</g>
		<g>
			<g>
				<path class="st0" d="M297.7,509.5h-45.5V368.7c0-1.8,1.4-3.2,3.2-3.2h39c1.8,0,3.2,1.4,3.2,3.2V509.5z"/>
			</g>
		</g>
	</g>
	<g>
		<path class="st1" d="M762.7,471.1H761v-17.3h1.6c4.8,0,8.7,3.9,8.7,8.7C771.3,467.2,767.5,471.1,762.7,471.1z"/>
	</g>
	<g>
		<g>
			<path class="st1" d="M669,205.3H8.1c-1.7,0-3-1.3-3-3v-62.2c0-1.7,1.3-3,3-3H669c1.7,0,3,1.3,3,3v62.2
				C672,203.9,670.7,205.3,669,205.3z"/>
		</g>
		<g>
			<path class="st1" d="M372.6,622.1V801c0,1.7-1.3,3-3,3h-62.2c-1.7,0-3-1.3-3-3V622.1H372.6z"/>
		</g>
		<g>
			<rect x="31.6" y="182.6" class="st2" width="613.9" height="428.7"/>
			<path class="st1" d="M654.3,620.1H22.8V173.7h631.5V620.1z M40.4,602.5h596.2V191.4H40.4V602.5z"/>
		</g>
		<g>
			<path class="st1" d="M154.8,244.4H71.4c-4.9,0-8.8-3.9-8.8-8.8c0-4.9,3.9-8.8,8.8-8.8h83.4c4.9,0,8.8,3.9,8.8,8.8
				C163.6,240.5,159.6,244.4,154.8,244.4z"/>
		</g>
		<g>
			<path class="st1" d="M249.5,240.6h-53.1c-4.9,0-8.8-3.9-8.8-8.8c0-4.9,3.9-8.8,8.8-8.8h53.1c4.9,0,8.8,3.9,8.8,8.8
				C258.3,236.7,254.4,240.6,249.5,240.6z"/>
		</g>
		<g>
			<path class="st1" d="M143.4,301.3h-30.3c-4.9,0-8.8-3.9-8.8-8.8c0-4.9,3.9-8.8,8.8-8.8h30.3c4.9,0,8.8,3.9,8.8,8.8
				C152.2,297.3,148.3,301.3,143.4,301.3z"/>
		</g>
		<g>
			<path class="st1" d="M249.5,301.3h-68.2c-4.9,0-8.8-3.9-8.8-8.8c0-4.9,3.9-8.8,8.8-8.8h68.2c4.9,0,8.8,3.9,8.8,8.8
				C258.3,297.3,254.4,301.3,249.5,301.3z"/>
		</g>
		<g>
			<path class="st1" d="M470.4,447.4h-90.9c-4.9,0-8.8-3.9-8.8-8.8s3.9-8.8,8.8-8.8h90.9c4.9,0,8.8,3.9,8.8,8.8
				S475.2,447.4,470.4,447.4z"/>
		</g>
		<g>
			<path class="st1" d="M568.9,447.4h-60.6c-4.9,0-8.8-3.9-8.8-8.8s3.9-8.8,8.8-8.8h60.6c4.9,0,8.8,3.9,8.8,8.8
				S573.7,447.4,568.9,447.4z"/>
		</g>
		<g>
			<path class="st1" d="M455.2,477.7h-30.3c-4.9,0-8.8-3.9-8.8-8.8c0-4.9,3.9-8.8,8.8-8.8h30.3c4.9,0,8.8,3.9,8.8,8.8
				C464,473.8,460.1,477.7,455.2,477.7z"/>
		</g>
		<g>
			<path class="st1" d="M591.6,477.7H485.5c-4.9,0-8.8-3.9-8.8-8.8c0-4.9,3.9-8.8,8.8-8.8h106.1c4.9,0,8.8,3.9,8.8,8.8
				C600.4,473.8,596.5,477.7,591.6,477.7z"/>
		</g>
		<g>
			<path class="st1" d="M485.5,523.2h-83.4c-4.9,0-8.8-3.9-8.8-8.8c0-4.9,3.9-8.8,8.8-8.8h83.4c4.9,0,8.8,3.9,8.8,8.8
				C494.3,519.3,490.4,523.2,485.5,523.2z"/>
		</g>
		<g>
			<path class="st1" d="M591.6,523.2h-83.4c-4.9,0-8.8-3.9-8.8-8.8c0-4.9,3.9-8.8,8.8-8.8h83.4c4.9,0,8.8,3.9,8.8,8.8
				C600.4,519.3,596.5,523.2,591.6,523.2z"/>
		</g>
		<g>
			<path class="st1" d="M470.4,553.5h-45.5c-4.9,0-8.8-3.9-8.8-8.8c0-4.9,3.9-8.8,8.8-8.8h45.5c4.9,0,8.8,3.9,8.8,8.8
				C479.2,549.6,475.2,553.5,470.4,553.5z"/>
		</g>
		<g>
			<path class="st1" d="M606.8,553.5h-98.5c-4.9,0-8.8-3.9-8.8-8.8c0-4.9,3.9-8.8,8.8-8.8h98.5c4.9,0,8.8,3.9,8.8,8.8
				C615.6,549.6,611.6,553.5,606.8,553.5z"/>
		</g>
		<g>
			<path class="st1" d="M596.9,308.1h-76.2V232C560.9,236,592.9,268,596.9,308.1z"/>
		</g>
		<g>
			<path class="st3" d="M590.5,313c0,41.8-34,75.8-75.8,75.8c-41.8,0-75.8-34-75.8-75.8c0-41.8,34-75.8,75.8-75.8V313H590.5z"/>
		</g>
		<g>
			<path class="st3" d="M321.5,576.6H276v-80.1c0-1.8,1.4-3.2,3.2-3.2h39c1.8,0,3.2,1.4,3.2,3.2V576.6z"/>
		</g>
		<g>
			<path class="st3" d="M192.6,576.6h-45.5v-80.1c0-1.8,1.4-3.2,3.2-3.2h39c1.8,0,3.2,1.4,3.2,3.2V576.6z"/>
		</g>
		<g>
			<path class="st1" d="M253.3,584.2h-45.5V398c0-1.8,1.4-3.2,3.2-3.2h39c1.8,0,3.2,1.4,3.2,3.2V584.2z"/>
		</g>
		<g>
			<path class="st1" d="M124.4,591.8H79V451c0-1.8,1.4-3.2,3.2-3.2h39c1.8,0,3.2,1.4,3.2,3.2V591.8z"/>
		</g>
		<g>
			<path class="st1" d="M669,644.8H8.1c-1.7,0-3-1.3-3-3v-62.2c0-1.7,1.3-3,3-3H669c1.7,0,3,1.3,3,3v62.2
				C672,643.5,670.7,644.8,669,644.8z"/>
		</g>
	</g>
</g>
</svg>
