<?xml version="1.0" encoding="utf-8"?>
<!-- Generator: Adobe Illustrator 22.0.1, SVG Export Plug-In . SVG Version: 6.00 Build 0)  -->
<svg version="1.1" id="图层_1" xmlns="http://www.w3.org/2000/svg" xmlns:xlink="http://www.w3.org/1999/xlink" x="0px" y="0px"
	 viewBox="0 0 850.4 850.4" style="enable-background:new 0 0 850.4 850.4;" xml:space="preserve">
<style type="text/css">
	.st0{fill:#F3931F;}
</style>
<g>
	<g>
		<path class="st0" d="M496.4,130.6H10.7c-1.8,0-3.3-1.5-3.3-3.3V60.1c0-1.8,1.5-3.3,3.3-3.3h485.7c1.8,0,3.3,1.5,3.3,3.3v67.3
			C499.7,129.1,498.2,130.6,496.4,130.6z"/>
	</g>
	<g>
		<path class="st0" d="M840.6,450.6H478.2c-1.9,0-3.4-1.5-3.4-3.4v-67.1c0-1.9,1.5-3.4,3.4-3.4h362.5c1.9,0,3.4,1.5,3.4,3.4v67.1
			C844,449.1,842.5,450.6,840.6,450.6z"/>
	</g>
	<g>
		<path class="st0" d="M483.9,795.2H43.5c-11.2,0-20.2-9.1-20.2-20.2V88.4h460.7V795.2z M40.8,106v669c0,1.4,1.2,2.6,2.6,2.6h422.8
			V106H40.8z"/>
	</g>
	<g>
		<path class="st0" d="M798.8,795.2H469.1V420.7H819V775C819,786.1,809.9,795.2,798.8,795.2z M486.7,777.6h312.1
			c1.4,0,2.6-1.2,2.6-2.6V438.3H486.7V777.6z"/>
	</g>
	<g>
		<path class="st0" d="M334.4,795.2H172.8V564c0-11.2,9.1-20.2,20.2-20.2h121.2c11.2,0,20.2,9.1,20.2,20.2V795.2z M190.4,777.6
			h126.4V564c0-1.4-1.2-2.6-2.6-2.6H193c-1.4,0-2.6,1.2-2.6,2.6V777.6z"/>
	</g>
	<g>
		<path class="st0" d="M751.3,795.2H536.8V637.8c0-11.2,9.1-20.2,20.2-20.2h174.1c11.1,0,20.2,9.1,20.2,20.2V795.2z M554.4,777.6
			h179.3V637.8c0-1.4-1.2-2.6-2.6-2.6H557c-1.4,0-2.6,1.2-2.6,2.6V777.6z"/>
	</g>
	<g>
		<path class="st0" d="M434.6,475.2h-91.9c-1.8,0-3.3-1.5-3.3-3.3V365.3c0-1.8,1.5-3.3,3.3-3.3h91.9c1.8,0,3.3,1.5,3.3,3.3v106.7
			C437.9,473.7,436.4,475.2,434.6,475.2z"/>
	</g>
	<g>
		<path class="st0" d="M299.2,475.2h-91.9c-1.8,0-3.3-1.5-3.3-3.3V365.3c0-1.8,1.5-3.3,3.3-3.3h91.9c1.8,0,3.3,1.5,3.3,3.3v106.7
			C302.5,473.7,301,475.2,299.2,475.2z"/>
	</g>
	<g>
		<path class="st0" d="M758.3,585.3h-91.9c-1.8,0-3.3-1.5-3.3-3.3V475.4c0-1.8,1.5-3.3,3.3-3.3h91.9c1.8,0,3.3,1.5,3.3,3.3v106.7
			C761.6,583.9,760.1,585.3,758.3,585.3z"/>
	</g>
	<g>
		<path class="st0" d="M622.9,585.3h-91.9c-1.8,0-3.3-1.5-3.3-3.3V475.4c0-1.8,1.5-3.3,3.3-3.3h91.9c1.8,0,3.3,1.5,3.3,3.3v106.7
			C626.2,583.9,624.8,585.3,622.9,585.3z"/>
	</g>
	<g>
		<path class="st0" d="M163.8,475.2H71.9c-1.8,0-3.3-1.5-3.3-3.3V365.3c0-1.8,1.5-3.3,3.3-3.3h91.9c1.8,0,3.3,1.5,3.3,3.3v106.7
			C167.1,473.7,165.6,475.2,163.8,475.2z"/>
	</g>
	<g>
		<path class="st0" d="M434.6,327.5h-91.9c-1.8,0-3.3-1.5-3.3-3.3V217.6c0-1.8,1.5-3.3,3.3-3.3h91.9c1.8,0,3.3,1.5,3.3,3.3v106.7
			C437.9,326.1,436.4,327.5,434.6,327.5z"/>
	</g>
	<g>
		<path class="st0" d="M299.2,327.5h-91.9c-1.8,0-3.3-1.5-3.3-3.3V217.6c0-1.8,1.5-3.3,3.3-3.3h91.9c1.8,0,3.3,1.5,3.3,3.3v106.7
			C302.5,326.1,301,327.5,299.2,327.5z"/>
	</g>
	<g>
		<path class="st0" d="M163.8,327.5H71.9c-1.8,0-3.3-1.5-3.3-3.3V217.6c0-1.8,1.5-3.3,3.3-3.3h91.9c1.8,0,3.3,1.5,3.3,3.3v106.7
			C167.1,326.1,165.6,327.5,163.8,327.5z"/>
	</g>
</g>
</svg>
