<?xml version="1.0" encoding="utf-8"?>
<!-- Generator: Adobe Illustrator 22.0.1, SVG Export Plug-In . SVG Version: 6.00 Build 0)  -->
<svg version="1.1" id="图层_1" xmlns="http://www.w3.org/2000/svg" xmlns:xlink="http://www.w3.org/1999/xlink" x="0px" y="0px"
	 viewBox="0 0 850.4 850.4" style="enable-background:new 0 0 850.4 850.4;" xml:space="preserve">
<style type="text/css">
	.st0{fill:#F3931F;}
	.st1{fill:#FFFFFF;}
	.st2{fill:#B3B3B3;}
</style>
<g>
	<g>
		<path class="st0" d="M477.2,758.2H18.5c-8.6,0-15.6-7-15.6-15.6V142.2c0-8.6,7-15.6,15.6-15.6h285.8c4.2,0,8.1,1.6,11,4.6
			l172.9,172.9c2.9,2.9,4.6,6.8,4.6,11v427.5C492.8,751.2,485.8,758.2,477.2,758.2z M20.6,740.5h454.5V316L303.4,144.3H20.6V740.5z"
			/>
	</g>
	<g>
		<path class="st0" d="M492.8,321.4H298V126.7h12.7l182,182V321.4z M315.7,303.7h147.2L315.7,156.6V303.7z"/>
	</g>
	<g>
		<path class="st0" d="M278.7,197.5H60.3c-4.9,0-8.8-4-8.8-8.8s4-8.8,8.8-8.8h218.4c4.9,0,8.8,4,8.8,8.8S283.6,197.5,278.7,197.5z"
			/>
	</g>
	<g>
		<path class="st0" d="M241.2,274.7H60.3c-4.9,0-8.8-4-8.8-8.8s4-8.8,8.8-8.8h180.9c4.9,0,8.8,4,8.8,8.8S246.1,274.7,241.2,274.7z"
			/>
	</g>
	<g>
		<path class="st0" d="M437.6,369.6H60.3c-4.9,0-8.8-4-8.8-8.8c0-4.9,4-8.8,8.8-8.8h377.3c4.9,0,8.8,4,8.8,8.8
			C446.4,365.7,442.5,369.6,437.6,369.6z"/>
	</g>
	<g>
		<path class="st0" d="M275.7,605.7H76.5c-1.7,0-3-1.3-3-3V421.1c0-1.7,1.3-3,3-3h199.2c1.7,0,3,1.3,3,3v181.6
			C278.7,604.4,277.4,605.7,275.7,605.7z"/>
	</g>
	<g>
		<path class="st0" d="M450.8,444.6H307.4c-4.9,0-8.8-4-8.8-8.8s4-8.8,8.8-8.8h143.4c4.9,0,8.8,4,8.8,8.8S455.7,444.6,450.8,444.6z"
			/>
	</g>
	<g>
		<path class="st0" d="M442,510.8H307.4c-4.9,0-8.8-4-8.8-8.8c0-4.9,4-8.8,8.8-8.8H442c4.9,0,8.8,4,8.8,8.8
			C450.8,506.9,446.9,510.8,442,510.8z"/>
	</g>
	<g>
		<path class="st0" d="M442,583.6H307.4c-4.9,0-8.8-4-8.8-8.8s4-8.8,8.8-8.8H442c4.9,0,8.8,4,8.8,8.8S446.9,583.6,442,583.6z"/>
	</g>
	<g>
		<path class="st0" d="M450.8,691.8H60.3c-4.9,0-8.8-4-8.8-8.8c0-4.9,4-8.8,8.8-8.8h390.5c4.9,0,8.8,4,8.8,8.8
			C459.7,687.8,455.7,691.8,450.8,691.8z"/>
	</g>
	<g>
		<path class="st1" d="M839.2,260v427.5c0,3.7-3,6.7-6.7,6.7H373.7c-3.7,0-6.7-3-6.7-6.7V87.1c0-3.7,3-6.7,6.7-6.7h285.8
			c1.8,0,3.5,0.7,4.8,2l172.9,172.9C838.5,256.5,839.2,258.2,839.2,260z"/>
		<path class="st0" d="M832.4,703H373.7c-8.6,0-15.6-7-15.6-15.6V87.1c0-8.6,7-15.6,15.6-15.6h285.8c4.2,0,8.1,1.6,11,4.6
			l172.9,172.9c2.9,2.9,4.6,6.8,4.6,11v427.5C848,696,841,703,832.4,703z M375.8,685.3h454.5V260.8L658.7,89.2H375.8V685.3z"/>
	</g>
	<g>
		<path class="st0" d="M848,266.2H653.3V71.5H666l182,182V266.2z M670.9,248.6h147.2L670.9,101.4V248.6z"/>
	</g>
	<g>
		<path class="st0" d="M634,142.3H415.5c-4.9,0-8.8-4-8.8-8.8s4-8.8,8.8-8.8H634c4.9,0,8.8,4,8.8,8.8S638.8,142.3,634,142.3z"/>
	</g>
	<g>
		<path class="st0" d="M596.5,219.6H415.5c-4.9,0-8.8-4-8.8-8.8c0-4.9,4-8.8,8.8-8.8h180.9c4.9,0,8.8,4,8.8,8.8
			C605.3,215.6,601.3,219.6,596.5,219.6z"/>
	</g>
	<g>
		<path class="st0" d="M806.1,636.6H415.5c-4.9,0-8.8-4-8.8-8.8s4-8.8,8.8-8.8h390.5c4.9,0,8.8,4,8.8,8.8S810.9,636.6,806.1,636.6z"
			/>
	</g>
	<g>
		<path class="st0" d="M812.7,312.2H415.5c-4.9,0-8.8-4-8.8-8.8s4-8.8,8.8-8.8h397.2c4.9,0,8.8,4,8.8,8.8S817.6,312.2,812.7,312.2z"
			/>
	</g>
	<g>
		<path class="st2" d="M442,577.2c-2.4,0-4.4-2-4.4-4.4v-26.5c0-2.4,2-4.4,4.4-4.4s4.4,2,4.4,4.4v26.5
			C446.4,575.2,444.4,577.2,442,577.2z M442,524.2c-2.4,0-4.4-2-4.4-4.4v-26.5c0-2.4,2-4.4,4.4-4.4s4.4,2,4.4,4.4v26.5
			C446.4,522.2,444.4,524.2,442,524.2z M442,471.2c-2.4,0-4.4-2-4.4-4.4v-26.5c0-2.4,2-4.4,4.4-4.4s4.4,2,4.4,4.4v26.5
			C446.4,469.2,444.4,471.2,442,471.2z M442,418.2c-2.4,0-4.4-2-4.4-4.4v-26.5c0-2.4,2-4.4,4.4-4.4s4.4,2,4.4,4.4v26.5
			C446.4,416.2,444.4,418.2,442,418.2z M442,365.2c-2.4,0-4.4-2-4.4-4.4v-26.5c0-2.4,2-4.4,4.4-4.4s4.4,2,4.4,4.4v26.5
			C446.4,363.2,444.4,365.2,442,365.2z"/>
	</g>
	<g>
		<path class="st2" d="M525.8,577.2c-2.4,0-4.4-2-4.4-4.4v-26.5c0-2.4,2-4.4,4.4-4.4c2.4,0,4.4,2,4.4,4.4v26.5
			C530.3,575.2,528.3,577.2,525.8,577.2z M525.8,524.2c-2.4,0-4.4-2-4.4-4.4v-26.5c0-2.4,2-4.4,4.4-4.4c2.4,0,4.4,2,4.4,4.4v26.5
			C530.3,522.2,528.3,524.2,525.8,524.2z M525.8,471.2c-2.4,0-4.4-2-4.4-4.4v-26.5c0-2.4,2-4.4,4.4-4.4c2.4,0,4.4,2,4.4,4.4v26.5
			C530.3,469.2,528.3,471.2,525.8,471.2z M525.8,418.2c-2.4,0-4.4-2-4.4-4.4v-26.5c0-2.4,2-4.4,4.4-4.4c2.4,0,4.4,2,4.4,4.4v26.5
			C530.3,416.2,528.3,418.2,525.8,418.2z M525.8,365.2c-2.4,0-4.4-2-4.4-4.4v-26.5c0-2.4,2-4.4,4.4-4.4c2.4,0,4.4,2,4.4,4.4v26.5
			C530.3,363.2,528.3,365.2,525.8,365.2z"/>
	</g>
	<g>
		<path class="st2" d="M609.7,577.2c-2.4,0-4.4-2-4.4-4.4v-26.5c0-2.4,2-4.4,4.4-4.4s4.4,2,4.4,4.4v26.5
			C614.1,575.2,612.1,577.2,609.7,577.2z M609.7,524.2c-2.4,0-4.4-2-4.4-4.4v-26.5c0-2.4,2-4.4,4.4-4.4s4.4,2,4.4,4.4v26.5
			C614.1,522.2,612.1,524.2,609.7,524.2z M609.7,471.2c-2.4,0-4.4-2-4.4-4.4v-26.5c0-2.4,2-4.4,4.4-4.4s4.4,2,4.4,4.4v26.5
			C614.1,469.2,612.1,471.2,609.7,471.2z M609.7,418.2c-2.4,0-4.4-2-4.4-4.4v-26.5c0-2.4,2-4.4,4.4-4.4s4.4,2,4.4,4.4v26.5
			C614.1,416.2,612.1,418.2,609.7,418.2z M609.7,365.2c-2.4,0-4.4-2-4.4-4.4v-26.5c0-2.4,2-4.4,4.4-4.4s4.4,2,4.4,4.4v26.5
			C614.1,363.2,612.1,365.2,609.7,365.2z"/>
	</g>
	<g>
		<path class="st2" d="M693.5,577.2c-2.4,0-4.4-2-4.4-4.4v-26.5c0-2.4,2-4.4,4.4-4.4s4.4,2,4.4,4.4v26.5
			C698,575.2,696,577.2,693.5,577.2z M693.5,524.2c-2.4,0-4.4-2-4.4-4.4v-26.5c0-2.4,2-4.4,4.4-4.4s4.4,2,4.4,4.4v26.5
			C698,522.2,696,524.2,693.5,524.2z M693.5,471.2c-2.4,0-4.4-2-4.4-4.4v-26.5c0-2.4,2-4.4,4.4-4.4s4.4,2,4.4,4.4v26.5
			C698,469.2,696,471.2,693.5,471.2z M693.5,418.2c-2.4,0-4.4-2-4.4-4.4v-26.5c0-2.4,2-4.4,4.4-4.4s4.4,2,4.4,4.4v26.5
			C698,416.2,696,418.2,693.5,418.2z M693.5,365.2c-2.4,0-4.4-2-4.4-4.4v-26.5c0-2.4,2-4.4,4.4-4.4s4.4,2,4.4,4.4v26.5
			C698,363.2,696,365.2,693.5,365.2z"/>
	</g>
	<g>
		<path class="st2" d="M777.4,572.8c-2.4,0-4.4-2-4.4-4.4v-26.5c0-2.4,2-4.4,4.4-4.4s4.4,2,4.4,4.4v26.5
			C781.8,570.8,779.8,572.8,777.4,572.8z M777.4,519.8c-2.4,0-4.4-2-4.4-4.4v-26.5c0-2.4,2-4.4,4.4-4.4s4.4,2,4.4,4.4v26.5
			C781.8,517.8,779.8,519.8,777.4,519.8z M777.4,466.8c-2.4,0-4.4-2-4.4-4.4v-26.5c0-2.4,2-4.4,4.4-4.4s4.4,2,4.4,4.4v26.5
			C781.8,464.8,779.8,466.8,777.4,466.8z M777.4,413.8c-2.4,0-4.4-2-4.4-4.4v-26.5c0-2.4,2-4.4,4.4-4.4s4.4,2,4.4,4.4v26.5
			C781.8,411.8,779.8,413.8,777.4,413.8z M777.4,360.8c-2.4,0-4.4-2-4.4-4.4v-26.5c0-2.4,2-4.4,4.4-4.4s4.4,2,4.4,4.4v26.5
			C781.8,358.8,779.8,360.8,777.4,360.8z"/>
	</g>
	<g>
		<path class="st0" d="M446.4,539.5c-2.7,0-5.4-1.2-7.1-3.6c-2.9-3.9-2.1-9.4,1.8-12.4l78-58l85-36.8l86.4,15.1l80.6-78.5
			c3.5-3.4,9.1-3.3,12.5,0.2c3.4,3.5,3.3,9.1-0.2,12.5l-87.1,84.8l-90.1-15.8L528.1,481l-76.4,56.8
			C450.1,538.9,448.2,539.5,446.4,539.5z"/>
	</g>
</g>
</svg>
